<svg width="0" height="0" class="hidden">
  <symbol fill="none" xmlns="http://www.w3.org/2000/svg" viewBox="0 0 37 38" id="Smile_emoji">
    <circle cx="18.4999" cy="18.5002" r="18.5" fill="#FFD93B"></circle>
    <path fill-rule="evenodd" clip-rule="evenodd" d="M18.503 30.3922C13.0954 30.3931 8.37634 26.7255 7.04196 21.4852C6.97006 21.2174 7.04776 20.9315 7.24536 20.7369C7.44296 20.5424 7.72995 20.4691 7.99667 20.5452C8.26337 20.6211 8.4686 20.8347 8.53397 21.1042C9.69363 25.6626 13.7979 28.8534 18.5014 28.8534C23.205 28.8534 27.3093 25.6626 28.469 21.1041C28.5791 20.6975 28.9954 20.4546 29.4037 20.5587C29.8119 20.6628 30.061 21.0754 29.9629 21.4852C28.6296 26.7258 23.9105 30.3936 18.503 30.3922Z" fill="#3E4347"></path>
    <path fill-rule="evenodd" clip-rule="evenodd" d="M36.9999 18.5033C36.9999 26.3439 32.0547 33.3343 24.6593 35.9456C17.2639 38.5568 9.02573 36.2211 4.10132 30.1169C11.4605 36.0486 22.1076 35.4788 28.7917 28.7954C35.4757 22.1122 36.0468 11.4651 30.1159 4.10522C34.4718 7.61511 37.0031 12.9093 36.9999 18.5033Z" fill="#F4C534"></path>
    <ellipse cx="12.5309" cy="15.9252" rx="2.835" ry="3.369" fill="#3E4347"></ellipse>
    <path fill-rule="evenodd" clip-rule="evenodd" d="M13.8079 15.2001C13.5274 15.3618 13.1695 15.2767 12.9919 15.0061C12.8141 14.8754 12.7363 14.6478 12.7969 14.4357C12.8575 14.2235 13.0438 14.0714 13.2638 14.0543C13.4838 14.0372 13.6913 14.1588 13.7839 14.3591C14.0134 14.5889 14.0239 14.9576 13.8079 15.2001Z" fill="#5A5F63"></path>
    <ellipse cx="24.4809" cy="15.9252" rx="2.835" ry="3.369" fill="#3E4347"></ellipse>
    <path fill-rule="evenodd" clip-rule="evenodd" d="M25.7559 15.2001C25.4754 15.3618 25.1175 15.2767 24.9399 15.0061C24.7621 14.8754 24.6843 14.6478 24.7449 14.4357C24.8055 14.2235 24.9918 14.0713 25.2118 14.0543C25.4318 14.0372 25.6393 14.1588 25.7319 14.3591C25.9614 14.5889 25.9719 14.9576 25.7559 15.2001Z" fill="#5A5F63"></path>
  </symbol>
  <symbol fill="none" xmlns="http://www.w3.org/2000/svg" viewBox="0 0 44 43" id="Party_emoji">
    <path fill-rule="evenodd" clip-rule="evenodd" d="M13.5742 12.9863L21.0062 1.06628C21.1288 0.850342 21.3579 0.717041 21.6062 0.717041C21.8545 0.717041 22.0836 0.850342 22.2062 1.06628L29.6332 12.9863H13.5742Z" fill="#955BA5"></path>
    <path fill-rule="evenodd" clip-rule="evenodd" d="M9.36108 2.16125C8.96338 2.16125 8.64111 1.83887 8.64111 1.44128V0.720215C8.64111 0.322632 8.96338 0.000244141 9.36108 0.000244141C9.75867 0.000244141 10.0811 0.322632 10.0811 0.720215V1.44019C10.0813 1.63135 10.0056 1.8147 9.87061 1.94995C9.73547 2.0852 9.55225 2.16125 9.36108 2.16125Z" fill="#F0C419"></path>
    <path fill-rule="evenodd" clip-rule="evenodd" d="M9.36108 5.76111C8.96338 5.76111 8.64111 5.43872 8.64111 5.04114V4.32104C8.64111 3.92346 8.96338 3.60107 9.36108 3.60107C9.75867 3.60107 10.0811 3.92346 10.0811 4.32104V5.04114C10.0811 5.43872 9.75867 5.76111 9.36108 5.76111Z" fill="#F0C419"></path>
    <path fill-rule="evenodd" clip-rule="evenodd" d="M7.9209 3.60107H7.20093C6.80334 3.60107 6.48096 3.27869 6.48096 2.8811C6.48096 2.4834 6.80334 2.16113 7.20093 2.16113H7.9209C8.3186 2.16113 8.64099 2.4834 8.64099 2.8811C8.64099 3.27869 8.3186 3.60107 7.9209 3.60107Z" fill="#F0C419"></path>
    <path fill-rule="evenodd" clip-rule="evenodd" d="M11.5221 3.60107H10.8021C10.4044 3.60107 10.082 3.27869 10.082 2.8811C10.082 2.4834 10.4044 2.16113 10.8021 2.16113H11.5221C11.9197 2.16113 12.2421 2.4834 12.2421 2.8811C12.2421 3.27869 11.9197 3.60107 11.5221 3.60107Z" fill="#F0C419"></path>
    <path fill-rule="evenodd" clip-rule="evenodd" d="M2.88 10.0812C2.4823 10.0812 2.15991 9.75879 2.15991 9.36121V8.64124C2.15991 8.24353 2.4823 7.92114 2.88 7.92114C3.27759 7.92114 3.59998 8.24353 3.59998 8.64124V9.36121C3.59998 9.75879 3.27759 10.0812 2.88 10.0812Z" fill="#F0C419"></path>
    <path fill-rule="evenodd" clip-rule="evenodd" d="M2.88 13.6873C2.4823 13.6873 2.15991 13.365 2.15991 12.9673V12.2473C2.15991 11.8496 2.4823 11.5273 2.88 11.5273C3.27759 11.5273 3.59998 11.8496 3.59998 12.2473V12.9673C3.59998 13.365 3.27759 13.6873 2.88 13.6873Z" fill="#F0C419"></path>
    <path fill-rule="evenodd" clip-rule="evenodd" d="M1.43994 11.5221H0.719971C0.322021 11.5221 -0.000488281 11.1995 -0.000488281 10.8015C-0.000488281 10.4037 0.322021 10.0811 0.719971 10.0811H1.43994C1.83789 10.0811 2.16052 10.4037 2.16052 10.8015C2.16052 11.1995 1.83789 11.5221 1.43994 11.5221Z" fill="#F0C419"></path>
    <path fill-rule="evenodd" clip-rule="evenodd" d="M5.04114 11.5221H4.32117C3.92322 11.5221 3.60059 11.1995 3.60059 10.8015C3.60059 10.4037 3.92322 10.0811 4.32117 10.0811H5.04114C5.43909 10.0811 5.7616 10.4037 5.7616 10.8015C5.7616 11.1995 5.43909 11.5221 5.04114 11.5221Z" fill="#F0C419"></path>
    <path fill-rule="evenodd" clip-rule="evenodd" d="M33.125 3.60144C32.7273 3.60144 32.405 3.27905 32.405 2.88135V2.16138C32.405 1.76379 32.7274 1.44141 33.125 1.44141C33.5227 1.44141 33.845 1.76379 33.845 2.16138V2.88135C33.8451 3.27905 33.5227 3.60144 33.125 3.60144Z" fill="#F0C419"></path>
    <path fill-rule="evenodd" clip-rule="evenodd" d="M33.125 7.20129C32.7273 7.20129 32.405 6.87891 32.405 6.4812V5.76123C32.405 5.36365 32.7274 5.04126 33.125 5.04126C33.5227 5.04126 33.845 5.36365 33.845 5.76123V6.4812C33.8451 6.87891 33.5227 7.20129 33.125 7.20129Z" fill="#F0C419"></path>
    <path fill-rule="evenodd" clip-rule="evenodd" d="M31.6849 5.04114H30.965C30.7075 5.0415 30.4695 4.9043 30.3406 4.6814C30.2117 4.4585 30.2118 4.18372 30.3406 3.96082C30.4695 3.73792 30.7075 3.60071 30.965 3.60107H31.6849C31.9424 3.60071 32.1804 3.73792 32.3093 3.96082C32.4381 4.18372 32.4381 4.4585 32.3093 4.6814C32.1804 4.9043 31.9424 5.0415 31.6848 5.04114H31.6849Z" fill="#F0C419"></path>
    <path fill-rule="evenodd" clip-rule="evenodd" d="M35.286 5.04114H34.5659C34.3086 5.0415 34.0704 4.9043 33.9417 4.6814C33.8127 4.4585 33.8127 4.18372 33.9417 3.96082C34.0706 3.73792 34.3086 3.60071 34.566 3.60107H35.286C35.5435 3.60071 35.7815 3.73792 35.9104 3.96082C36.0392 4.18372 36.0392 4.4585 35.9103 4.6814C35.7815 4.9043 35.5435 5.0415 35.2859 5.04114H35.286Z" fill="#F0C419"></path>
    <path fill-rule="evenodd" clip-rule="evenodd" d="M40.3259 10.8022C39.9283 10.8022 39.606 10.48 39.606 10.0823V9.3623C39.606 8.9646 39.9283 8.64233 40.3259 8.64233C40.7236 8.64233 41.046 8.9646 41.046 9.3623V10.0823C41.046 10.48 40.7236 10.8022 40.3259 10.8022Z" fill="#F0C419"></path>
    <path fill-rule="evenodd" clip-rule="evenodd" d="M40.3259 14.4032C39.9283 14.4032 39.606 14.0808 39.606 13.6831V12.9631C39.606 12.5656 39.9283 12.2432 40.3259 12.2432C40.7236 12.2432 41.046 12.5656 41.046 12.9631V13.6831C41.046 14.0808 40.7236 14.4032 40.3259 14.4032Z" fill="#F0C419"></path>
    <path fill-rule="evenodd" clip-rule="evenodd" d="M38.886 12.2422H38.166C37.7683 12.2422 37.446 11.9199 37.446 11.5222C37.446 11.1246 37.7683 10.8022 38.166 10.8022H38.886C39.2837 10.8022 39.606 11.1246 39.606 11.5222C39.606 11.9199 39.2837 12.2422 38.886 12.2422Z" fill="#F0C419"></path>
    <path fill-rule="evenodd" clip-rule="evenodd" d="M42.4869 12.2422H41.7668C41.3693 12.2422 41.0469 11.9199 41.0469 11.5222C41.0469 11.1246 41.3693 10.8022 41.7668 10.8022H42.4869C42.8845 10.8022 43.2069 11.1246 43.2069 11.5222C43.2069 11.9199 42.8845 12.2422 42.4869 12.2422Z" fill="#F0C419"></path>
    <path fill-rule="evenodd" clip-rule="evenodd" d="M37.446 26.6453C37.446 33.0532 33.5858 38.8302 27.6656 41.2823C21.7454 43.7345 14.9309 42.3789 10.3999 37.8475C5.8689 33.3163 4.51379 26.5018 6.96631 20.5817C9.41882 14.6616 15.196 10.8019 21.604 10.8022C25.8057 10.8022 29.8353 12.4714 32.8063 15.4426C35.7773 18.4138 37.4463 22.4435 37.446 26.6453Z" fill="#F0C419"></path>
    <path fill-rule="evenodd" clip-rule="evenodd" d="M18.7229 23.0443C18.5057 23.0446 18.2999 22.9469 18.1628 22.7783C17.62 22.04 16.7583 21.6041 15.8419 21.6041C14.9255 21.6041 14.0637 22.04 13.5209 22.7783C13.2706 23.0874 12.8173 23.1353 12.5081 22.8851C12.1989 22.635 12.1509 22.1816 12.4009 21.8723C13.2177 20.7959 14.4911 20.1636 15.8424 20.1636C17.1936 20.1636 18.467 20.7959 19.2838 21.8723C19.458 22.0883 19.4926 22.385 19.3728 22.6353C19.2531 22.8854 19.0002 23.0446 18.7229 23.0443Z" fill="#E57E25"></path>
    <path fill-rule="evenodd" clip-rule="evenodd" d="M12.9618 19.4432C12.7306 19.4431 12.5134 19.332 12.3782 19.1444C12.2429 18.9569 12.2059 18.7157 12.2789 18.4962C12.9802 16.7767 14.71 15.7053 16.5619 15.8433C16.9595 15.8433 17.2819 16.1656 17.2819 16.5632C17.2819 16.9609 16.9595 17.2832 16.5619 17.2832C15.3325 17.1577 14.1595 17.8282 13.6439 18.9513C13.5459 19.2448 13.2712 19.4429 12.9618 19.4432Z" fill="#2C2F38"></path>
    <path fill-rule="evenodd" clip-rule="evenodd" d="M30.2449 23.0442C30.0265 23.0444 29.8197 22.9456 29.6829 22.7753C29.1399 22.0377 28.2787 21.6024 27.3629 21.6024C26.4471 21.6024 25.5858 22.0377 25.0428 22.7753C24.7926 23.0844 24.3392 23.1321 24.03 22.882C23.7208 22.6318 23.6729 22.1785 23.9229 21.8693C24.7396 20.7927 26.0131 20.1604 27.3644 20.1604C28.7157 20.1604 29.9891 20.7927 30.8059 21.8693C30.98 22.0852 31.0146 22.3818 30.8949 22.6321C30.775 22.8823 30.5222 23.0415 30.2449 23.0413V23.0442Z" fill="#E57E25"></path>
    <path fill-rule="evenodd" clip-rule="evenodd" d="M30.2439 19.4432C29.9362 19.4431 29.6625 19.2474 29.5629 18.9563C29.0463 17.8331 27.8743 17.161 26.6439 17.2822C26.2462 17.2822 25.9238 16.96 25.9238 16.5623C25.9238 16.1647 26.2462 15.8423 26.6439 15.8423C28.4957 15.7043 30.2255 16.7758 30.9269 18.4952C30.9998 18.7147 30.9628 18.9558 30.8275 19.1434C30.6923 19.3311 30.4751 19.4421 30.2438 19.4423L30.2439 19.4432Z" fill="#2C2F38"></path>
    <path fill-rule="evenodd" clip-rule="evenodd" d="M32.4019 28.4592C32.4019 28.9592 32.3949 29.4463 32.3519 29.9423C32.3159 30.5056 32.2438 31.0662 32.1359 31.6202C32.1296 31.6758 32.12 31.731 32.1068 31.7853C31.835 33.1599 31.1897 34.4331 30.2418 35.4653C29.8615 35.9021 29.4342 36.2958 28.9679 36.6393C28.2554 37.1831 27.473 37.6288 26.6418 37.9644C26.5189 38.0143 26.3899 38.0643 26.2599 38.1083C25.9209 38.2303 25.5829 38.3313 25.2368 38.4253C24.2834 38.6758 23.3058 38.823 22.3209 38.8643C22.0758 38.8783 21.8379 38.8862 21.6008 38.8862C21.3639 38.8862 21.1259 38.8793 20.8809 38.8643C19.8959 38.823 18.9183 38.6758 17.9648 38.4253C17.6199 38.3313 17.2809 38.2313 16.9419 38.1083C16.8119 38.0643 16.6829 38.0143 16.5598 37.9644C15.7286 37.6288 14.9464 37.1831 14.2339 36.6393C13.7675 36.2958 13.3402 35.9021 12.9598 35.4653C12.0121 34.4331 11.3668 33.1599 11.0948 31.7853C11.0817 31.731 11.072 31.6758 11.0658 31.6202C10.958 31.0662 10.8859 30.5056 10.8499 29.9423C10.8069 29.4423 10.7998 28.9553 10.7998 28.4592C10.8069 28.2502 10.8069 28.0413 10.8219 27.8323C10.8219 27.6882 10.8289 27.5322 10.8429 27.3933C10.8685 27.2651 10.8805 27.1348 10.8788 27.0042C10.8788 27.0043 11.1309 27.1982 11.5789 27.5043H11.5858C11.9458 27.7493 12.4429 28.0582 13.0548 28.3972C13.4548 28.6272 13.9119 28.8652 14.4019 29.0973C15.1172 29.4353 15.8518 29.7312 16.6018 29.9833C17.0558 30.1343 17.5238 30.2712 18.0018 30.3833C18.9458 30.6166 19.9104 30.7566 20.8818 30.8013C21.0688 30.8082 21.2559 30.8152 21.4508 30.8152H21.7509C21.9448 30.8152 22.1328 30.8082 22.3198 30.8013C23.2911 30.7566 24.2559 30.6166 25.1998 30.3833C25.6818 30.2683 26.1498 30.1312 26.5999 29.9833C27.3499 29.7312 28.0845 29.4353 28.7998 29.0973C29.2898 28.8672 29.7428 28.6293 30.1469 28.3972C30.7588 28.0582 31.2628 27.7422 31.6228 27.4973C32.0768 27.1973 32.3229 26.9973 32.3229 26.9973C32.3212 27.1278 32.3333 27.2582 32.3588 27.3862C32.3738 27.5303 32.3798 27.6863 32.3798 27.8252C32.3948 28.0343 32.3948 28.2433 32.4019 28.4523V28.4592Z" fill="white"></path>
    <path fill-rule="evenodd" clip-rule="evenodd" d="M32.355 29.9423C32.319 30.5056 32.2468 31.0662 32.139 31.6202C31.5302 32.0421 30.8978 32.4291 30.245 32.7793C29.813 33.0173 29.3311 33.2543 28.8051 33.4923C28.1023 33.8136 27.3811 34.0924 26.645 34.3273C26.184 34.4783 25.702 34.6152 25.205 34.7273C24.259 34.9474 23.2952 35.0813 22.325 35.1272C22.1379 35.1272 21.951 35.1343 21.756 35.1343H21.4561C21.262 35.1343 21.074 35.1272 20.887 35.1272C19.9169 35.0813 18.9529 34.9474 18.0071 34.7273C17.507 34.6123 17.028 34.4752 16.567 34.3273C15.8309 34.0924 15.1096 33.8136 14.407 33.4923C13.881 33.2543 13.3989 33.0173 12.967 32.7793C12.3142 32.4291 11.6819 32.0421 11.073 31.6204C10.9651 31.0662 10.8929 30.5056 10.8569 29.9423C11.0436 29.9158 11.233 29.9651 11.3829 30.0792C11.8901 30.46 12.4191 30.8109 12.9669 31.1302C13.377 31.3752 13.86 31.6412 14.407 31.9082C15.1084 32.2531 15.8297 32.5559 16.567 32.8153C17.028 32.9742 17.51 33.1252 18.007 33.2473C18.9495 33.4917 19.9146 33.6389 20.887 33.6863C21.074 33.6932 21.261 33.7003 21.4561 33.7003H21.756C21.95 33.7003 22.1379 33.6934 22.325 33.6863C23.2975 33.6389 24.2626 33.4917 25.205 33.2473C25.705 33.1252 26.184 32.9733 26.645 32.8153C27.3823 32.5559 28.1035 32.2529 28.8051 31.9082C29.353 31.6412 29.835 31.3752 30.245 31.1302C30.793 30.8109 31.3218 30.46 31.829 30.0792C31.979 29.9651 32.1685 29.9158 32.355 29.9423Z" fill="#E6E7E8"></path>
    <path fill-rule="evenodd" clip-rule="evenodd" d="M22.3229 30.8062V38.8643C22.0779 38.8793 21.8398 38.8862 21.6029 38.8862C21.3658 38.8862 21.1278 38.8793 20.8828 38.8643V30.8062C21.0698 30.8132 21.2578 30.8202 21.4518 30.8202H21.7518C21.9489 30.8213 22.1359 30.8132 22.3229 30.8062Z" fill="#E6E7E8"></path>
    <path fill-rule="evenodd" clip-rule="evenodd" d="M18.0029 30.3892V38.2241C18.0055 38.2927 17.9933 38.3608 17.967 38.4242C17.6219 38.3302 17.283 38.2302 16.944 38.1072C16.814 38.0642 16.6851 38.0132 16.562 37.9631V30.1932C16.563 30.1221 16.5752 30.0515 16.598 29.9841C17.052 30.1372 17.521 30.2742 18.0029 30.3892Z" fill="#E6E7E8"></path>
    <path fill-rule="evenodd" clip-rule="evenodd" d="M14.4021 29.1003V36.1864C14.4045 36.3529 14.3453 36.5145 14.2361 36.6403C13.7697 36.2969 13.3424 35.9032 12.962 35.4664V28.7473C12.9596 28.6254 12.9922 28.5052 13.056 28.4014C13.4561 28.6313 13.9131 28.8693 14.4031 29.1013L14.4021 29.1003Z" fill="#E6E7E8"></path>
    <path fill-rule="evenodd" clip-rule="evenodd" d="M30.2449 28.7472V35.4652C29.8645 35.902 29.4373 36.2957 28.9708 36.6392C28.8616 36.5134 28.8025 36.3518 28.8048 36.1853L28.8049 29.0992C29.2949 28.8691 29.7479 28.6312 30.1519 28.3992C30.2157 28.5032 30.2484 28.6233 30.2458 28.7452L30.2449 28.7472Z" fill="#E6E7E8"></path>
    <path fill-rule="evenodd" clip-rule="evenodd" d="M26.641 30.1942V37.9642C26.5181 38.0142 26.389 38.0642 26.259 38.1082C25.92 38.2302 25.582 38.3312 25.2361 38.4252C25.2098 38.3618 25.1975 38.2937 25.2 38.2252V30.3901C25.682 30.2751 26.15 30.1382 26.6 29.9902C26.6228 30.0576 26.635 30.1282 26.636 30.1992L26.641 30.1942Z" fill="#E6E7E8"></path>
    <path fill-rule="evenodd" clip-rule="evenodd" d="M8.99805 29.2502C8.76099 29.2502 8.53931 29.1331 8.40601 28.937C8.27271 28.741 8.245 28.4917 8.33203 28.2712C8.42004 28.0553 9.30505 26.1343 13.2321 25.6663C13.627 25.6194 13.9851 25.9014 14.032 26.2963C14.079 26.6912 13.7969 27.0493 13.402 27.0963C10.3311 27.4633 9.66309 28.8153 9.65796 28.8282C9.53735 29.0841 9.28088 29.2482 8.99805 29.2504V29.2502Z" fill="#E57E25"></path>
    <path fill-rule="evenodd" clip-rule="evenodd" d="M34.205 29.2653C33.9182 29.2656 33.6587 29.0959 33.5439 28.8333C33.517 28.7803 32.824 27.4652 29.799 27.1052C29.4041 27.0583 29.1221 26.7001 29.1689 26.3052C29.2159 25.9104 29.5741 25.6283 29.969 25.6753C33.8989 26.1443 34.7839 28.0632 34.869 28.2803C34.9587 28.5022 34.9324 28.7544 34.7983 28.9529C34.6644 29.1515 34.4404 29.2704 34.2009 29.2703L34.205 29.2653Z" fill="#E57E25"></path>
    <path fill-rule="evenodd" clip-rule="evenodd" d="M25.9601 7.09326C23.113 6.2771 20.0941 6.2771 17.2471 7.09326L21.0061 1.06531C21.1287 0.849365 21.3578 0.716064 21.6061 0.716064C21.8544 0.716064 22.0835 0.849365 22.2061 1.06531L25.9601 7.09326Z" fill="#B49ACA"></path>
  </symbol>
  <symbol fill="none" xmlns="http://www.w3.org/2000/svg" viewBox="0 0 32 32" id="Happy_emoji">
    <circle cx="16" cy="16.0002" r="16" fill="#FFD93B"></circle>
    <path fill-rule="evenodd" clip-rule="evenodd" d="M25.7928 20.9852C24.141 24.9316 20.2811 27.5004 16.0028 27.5004C11.7246 27.5004 7.86469 24.9316 6.21283 20.9852C6.05688 20.6265 6.09863 20.2124 6.32312 19.8921C6.54755 19.5717 6.92242 19.3911 7.31281 19.4152C13.097 19.7821 18.8986 19.7821 24.6827 19.4152C25.0733 19.392 25.4482 19.5721 25.6741 19.8916C25.9 20.2111 25.9449 20.6246 25.7928 20.9852Z" fill="#3E4347"></path>
    <path fill-rule="evenodd" clip-rule="evenodd" d="M31.5729 16.0002C31.5761 22.6046 27.4122 28.4933 21.1838 30.692C14.9553 32.8907 8.0174 30.9211 3.87329 25.7777C10.0688 30.7758 19.0361 30.2974 24.6646 24.6686C30.2932 19.0398 30.7712 10.0725 25.7729 3.8772C29.4421 6.83154 31.5749 11.2894 31.5729 16.0002H31.5729Z" fill="#F4C534"></path>
    <ellipse cx="9.58005" cy="11.7132" rx="5.655" ry="5.66" fill="white"></ellipse>
    <path fill-rule="evenodd" clip-rule="evenodd" d="M13.629 11.3541C13.6311 12.514 12.9336 13.561 11.8622 14.006C10.7908 14.4509 9.55688 14.2061 8.73657 13.3859C7.9162 12.5656 7.67126 11.3317 8.11609 10.2601C8.56091 9.18872 9.60779 8.49121 10.7679 8.49316C11.5271 8.49182 12.2556 8.79272 12.7925 9.32959C13.3293 9.86646 13.6303 10.595 13.629 11.3541Z" fill="#3E4347"></path>
    <path fill-rule="evenodd" clip-rule="evenodd" d="M12.4128 10.8103C12.2179 11.0104 11.8129 10.9174 11.5079 10.6104C11.2029 10.3033 11.1079 9.91028 11.3079 9.70532C11.5079 9.50037 11.9079 9.60535 12.2129 9.90527C12.5179 10.2053 12.6169 10.6154 12.4128 10.8103Z" fill="white"></path>
    <ellipse cx="22.4201" cy="11.7132" rx="5.655" ry="5.66" fill="white"></ellipse>
    <path fill-rule="evenodd" clip-rule="evenodd" d="M18.0911 11.3541C18.089 12.514 18.7864 13.561 19.8578 14.006C20.9292 14.4509 22.1631 14.2061 22.9835 13.3859C23.8038 12.5656 24.0488 11.3317 23.604 10.2601C23.1591 9.18872 22.1123 8.49121 20.9521 8.49316C20.193 8.49182 19.4645 8.79272 18.9276 9.32959C18.3907 9.86646 18.0897 10.595 18.0911 11.3541Z" fill="#3E4347"></path>
    <path fill-rule="evenodd" clip-rule="evenodd" d="M19.3071 10.8103C19.5021 11.0104 19.907 10.9174 20.2121 10.6104C20.517 10.3033 20.6121 9.91028 20.412 9.70532C20.2121 9.50037 19.8121 9.60535 19.5071 9.90527C19.2021 10.2053 19.0991 10.6154 19.3071 10.8103Z" fill="white"></path>
    <path fill-rule="evenodd" clip-rule="evenodd" d="M7.31305 19.4161C7.24603 19.4149 7.17914 19.42 7.11304 19.4312C8.92004 21.8782 12.2131 22.0132 15.996 22.0132C19.7791 22.0132 23.0721 21.8782 24.8791 19.4312C24.813 19.4203 24.746 19.4152 24.6791 19.4161C18.8961 19.7828 13.0958 19.7828 7.31287 19.4161H7.31305Z" fill="white"></path>
    <path fill-rule="evenodd" clip-rule="evenodd" d="M15.998 27.5012C17.5624 27.5027 19.1077 27.1567 20.522 26.4883C20.4661 25.3923 20.0116 24.3545 19.2441 23.5703C18.6375 22.9619 17.7358 22.7555 16.925 23.0393C16.1608 23.3049 15.3572 23.4402 14.548 23.4392C13.0789 23.448 11.8216 24.4957 11.548 25.9392C11.5191 26.1243 11.5021 26.3109 11.4971 26.4982C12.9052 27.1598 14.4422 27.5023 15.998 27.5012Z" fill="#E24B4B"></path>
  </symbol>
    <symbol role="img" xmlns="http://www.w3.org/2000/svg" viewBox="0 0 24 24" id="anchor">
    <title>Anchor</title>
    <path d="M23.214 8.166S22.209 7.69 21.164 8c-.782.23-1.638.824-2.125 2.055-.939 2.363-.126 6.484-.444 6.484s-1.319-3.797-2.658-7.752c-1.34-3.954-2.497-8.061-4.588-7.73-1.854.293-1.279 4.976-.553 9.362.658 3.976 1.419 7.698.984 7.698-.777.001-3.326-10.988-5.939-10.57-2.613.416.753 12.525.046 12.548-.581.019-2.006-7.37-4.121-7.031-1.602.257-.175 6.006-.109 7.61.016.402.141 1.157-.461 1.157H0v1.118h1.958c.402-.02.72-.174.881-.57.544-1.342-.884-7.042-.55-7.084.23-.028.725 1.707 1.416 3.67.69 1.963 1.383 3.995 2.696 3.995 2.83 0-.057-11.121.504-11.121.297 0 1.106 2.26 1.995 4.738 1.089 3.028 2.416 6.387 4.018 6.387 1.912 0 1.29-4.338.698-8.495-.513-3.598-1.114-6.978-.793-6.978.721 0 3.447 15.467 6.72 15.467 1.64 0 1.658-3.233 1.658-6.72 0-2.448-.204-4.68 1.331-5.217.73-.254 1.468.198 1.468.198Z"></path>
  </symbol>
  <symbol role="img" xmlns="http://www.w3.org/2000/svg" viewBox="0 0 24 24" id="applepodcasts">
    <title>Apple Podcasts</title>
    <path d="M5.34 0A5.328 5.328 0 000 5.34v13.32A5.328 5.328 0 005.34 24h13.32A5.328 5.328 0 0024 18.66V5.34A5.328 5.328 0 0018.66 0zm6.525 2.568c2.336 0 4.448.902 6.056 2.587 1.224 1.272 1.912 2.619 2.264 4.392.12.59.12 2.2.007 2.864a8.506 8.506 0 01-3.24 5.296c-.608.46-2.096 1.261-2.336 1.261-.088 0-.096-.091-.056-.46.072-.592.144-.715.48-.856.536-.224 1.448-.874 2.008-1.435a7.644 7.644 0 002.008-3.536c.208-.824.184-2.656-.048-3.504-.728-2.696-2.928-4.792-5.624-5.352-.784-.16-2.208-.16-3 0-2.728.56-4.984 2.76-5.672 5.528-.184.752-.184 2.584 0 3.336.456 1.832 1.64 3.512 3.192 4.512.304.2.672.408.824.472.336.144.408.264.472.856.04.36.03.464-.056.464-.056 0-.464-.176-.896-.384l-.04-.03c-2.472-1.216-4.056-3.274-4.632-6.012-.144-.706-.168-2.392-.03-3.04.36-1.74 1.048-3.1 2.192-4.304 1.648-1.737 3.768-2.656 6.128-2.656zm.134 2.81c.409.004.803.04 1.106.106 2.784.62 4.76 3.408 4.376 6.174-.152 1.114-.536 2.03-1.216 2.88-.336.43-1.152 1.15-1.296 1.15-.023 0-.048-.272-.048-.603v-.605l.416-.496c1.568-1.878 1.456-4.502-.256-6.224-.664-.67-1.432-1.064-2.424-1.246-.64-.118-.776-.118-1.448-.008-1.02.167-1.81.562-2.512 1.256-1.72 1.704-1.832 4.342-.264 6.222l.413.496v.608c0 .336-.027.608-.06.608-.03 0-.264-.16-.512-.36l-.034-.011c-.832-.664-1.568-1.842-1.872-2.997-.184-.698-.184-2.024.008-2.72.504-1.878 1.888-3.335 3.808-4.019.41-.145 1.133-.22 1.814-.211zm-.13 2.99c.31 0 .62.06.844.178.488.253.888.745 1.04 1.259.464 1.578-1.208 2.96-2.72 2.254h-.015c-.712-.331-1.096-.956-1.104-1.77 0-.733.408-1.371 1.112-1.745.224-.117.534-.176.844-.176zm-.011 4.728c.988-.004 1.706.349 1.97.97.198.464.124 1.932-.218 4.302-.232 1.656-.36 2.074-.68 2.356-.44.39-1.064.498-1.656.288h-.003c-.716-.257-.87-.605-1.164-2.644-.341-2.37-.416-3.838-.218-4.302.262-.616.974-.966 1.97-.97z"></path>
  </symbol>
  <symbol role="img" xmlns="http://www.w3.org/2000/svg" viewBox="0 0 24 24" id="facebook">
    <title>Facebook</title>
    <path d="M24 12.073c0-6.627-5.373-12-12-12s-12 5.373-12 12c0 5.99 4.388 10.954 10.125 11.854v-8.385H7.078v-3.47h3.047V9.43c0-3.007 1.792-4.669 4.533-4.669 1.312 0 2.686.235 2.686.235v2.953H15.83c-1.491 0-1.956.925-1.956 1.874v2.25h3.328l-.532 3.47h-2.796v8.385C19.612 23.027 24 18.062 24 12.073z"></path>
  </symbol>
  <symbol role="img" xmlns="http://www.w3.org/2000/svg" viewBox="0 0 24 24" id="instagram">
    <title>Instagram</title>
    <path d="M12 0C8.74 0 8.333.015 7.053.072 5.775.132 4.905.333 4.14.63c-.789.306-1.459.717-2.126 1.384S.935 3.35.63 4.14C.333 4.905.131 5.775.072 7.053.012 8.333 0 8.74 0 12s.015 3.667.072 4.947c.06 1.277.261 2.148.558 2.913.306.788.717 1.459 1.384 2.126.667.666 1.336 1.079 2.126 1.384.766.296 1.636.499 2.913.558C8.333 23.988 8.74 24 12 24s3.667-.015 4.947-.072c1.277-.06 2.148-.262 2.913-.558.788-.306 1.459-.718 2.126-1.384.666-.667 1.079-1.335 1.384-2.126.296-.765.499-1.636.558-2.913.06-1.28.072-1.687.072-4.947s-.015-3.667-.072-4.947c-.06-1.277-.262-2.149-.558-2.913-.306-.789-.718-1.459-1.384-2.126C21.319 1.347 20.651.935 19.86.63c-.765-.297-1.636-.499-2.913-.558C15.667.012 15.26 0 12 0zm0 2.16c3.203 0 3.585.016 4.85.071 1.17.055 1.805.249 2.227.415.562.217.96.477 1.382.896.419.42.679.819.896 1.381.164.422.36 1.057.413 2.227.057 1.266.07 1.646.07 4.85s-.015 3.585-.074 4.85c-.061 1.17-.256 1.805-.421 2.227-.224.562-.479.96-.899 1.382-.419.419-.824.679-1.38.896-.42.164-1.065.36-2.235.413-1.274.057-1.649.07-4.859.07-3.211 0-3.586-.015-4.859-.074-1.171-.061-1.816-.256-2.236-.421-.569-.224-.96-.479-1.379-.899-.421-.419-.69-.824-.9-1.38-.165-.42-.359-1.065-.42-2.235-.045-1.26-.061-1.649-.061-4.844 0-3.196.016-3.586.061-4.861.061-1.17.255-1.814.42-2.234.21-.57.479-.96.9-1.381.419-.419.81-.689 1.379-.898.42-.166 1.051-.361 2.221-.421 1.275-.045 1.65-.06 4.859-.06l.045.03zm0 3.678c-3.405 0-6.162 2.76-6.162 6.162 0 3.405 2.76 6.162 6.162 6.162 3.405 0 6.162-2.76 6.162-6.162 0-3.405-2.76-6.162-6.162-6.162zM12 16c-2.21 0-4-1.79-4-4s1.79-4 4-4 4 1.79 4 4-1.79 4-4 4zm7.846-10.405c0 .795-.646 1.44-1.44 1.44-.795 0-1.44-.646-1.44-1.44 0-.794.646-1.439 1.44-1.439.793-.001 1.44.645 1.44 1.439z"></path>
  </symbol>
  <symbol role="img" xmlns="http://www.w3.org/2000/svg" viewBox="0 0 24 24" id="linkedin">
    <title>LinkedIn</title>
    <path d="M20.447 20.452h-3.554v-5.569c0-1.328-.027-3.037-1.852-3.037-1.853 0-2.136 1.445-2.136 2.939v5.667H9.351V9h3.414v1.561h.046c.477-.9 1.637-1.85 3.37-1.85 3.601 0 4.267 2.37 4.267 5.455v6.286zM5.337 7.433c-1.144 0-2.063-.926-2.063-2.065 0-1.138.92-2.063 2.063-2.063 1.14 0 2.064.925 2.064 2.063 0 1.139-.925 2.065-2.064 2.065zm1.782 13.019H3.555V9h3.564v11.452zM22.225 0H1.771C.792 0 0 .774 0 1.729v20.542C0 23.227.792 24 1.771 24h20.451C23.2 24 24 23.227 24 22.271V1.729C24 .774 23.2 0 22.222 0h.003z"></path>
  </symbol>
  <symbol role="img" xmlns="http://www.w3.org/2000/svg" viewBox="0 0 24 24" id="medium">
    <title>Medium</title>
    <path d="M13.54 12a6.8 6.8 0 01-6.77 6.82A6.8 6.8 0 010 12a6.8 6.8 0 016.77-6.82A6.8 6.8 0 0113.54 12zM20.96 12c0 3.54-1.51 6.42-3.38 6.42-1.87 0-3.39-2.88-3.39-6.42s1.52-6.42 3.39-6.42 3.38 2.88 3.38 6.42M24 12c0 3.17-.53 5.75-1.19 5.75-.66 0-1.19-2.58-1.19-5.75s.53-5.75 1.19-5.75C23.47 6.25 24 8.83 24 12z"></path>
  </symbol>
  <symbol role="img" xmlns="http://www.w3.org/2000/svg" viewBox="0 0 24 24" id="spotify">
    <title>Spotify</title>
    <path d="M12 0C5.4 0 0 5.4 0 12s5.4 12 12 12 12-5.4 12-12S18.66 0 12 0zm5.521 17.34c-.24.359-.66.48-1.021.24-2.82-1.74-6.36-2.101-10.561-1.141-.418.122-.779-.179-.899-.539-.12-.421.18-.78.54-.9 4.56-1.021 8.52-.6 11.64 1.32.42.18.479.659.301 1.02zm1.44-3.3c-.301.42-.841.6-1.262.3-3.239-1.98-8.159-2.58-11.939-1.38-.479.12-1.02-.12-1.14-.6-.12-.48.12-1.021.6-1.141C9.6 9.9 15 10.561 18.72 12.84c.361.181.54.78.241 1.2zm.12-3.36C15.24 8.4 8.82 8.16 5.16 9.301c-.6.179-1.2-.181-1.38-.721-.18-.601.18-1.2.72-1.381 4.26-1.26 11.28-1.02 15.721 1.621.539.3.719 1.02.419 1.56-.299.421-1.02.599-1.559.3z"></path>
  </symbol>
  <symbol role="img" xmlns="http://www.w3.org/2000/svg" viewBox="0 0 24 24" id="twitter">
    <title>Twitter</title>
    <path d="M23.953 4.57a10 10 0 01-2.825.775 4.958 4.958 0 002.163-2.723c-.951.555-2.005.959-3.127 1.184a4.92 4.92 0 00-8.384 4.482C7.69 8.095 4.067 6.13 1.64 3.162a4.822 4.822 0 00-.666 2.475c0 1.71.87 3.213 2.188 4.096a4.904 4.904 0 01-2.228-.616v.06a4.923 4.923 0 003.946 4.827 4.996 4.996 0 01-2.212.085 4.936 4.936 0 004.604 3.417 9.867 9.867 0 01-6.102 2.105c-.39 0-.779-.023-1.17-.067a13.995 13.995 0 007.557 2.209c9.053 0 13.998-7.496 13.998-13.985 0-.21 0-.42-.015-.63A9.935 9.935 0 0024 4.59z"></path>
  </symbol>
  <symbol role="img" xmlns="http://www.w3.org/2000/svg" viewBox="0 0 24 24" id="rss">
    <title>RSS</title>
    <path d="M19.199 24C19.199 13.467 10.533 4.8 0 4.8V0c13.165 0 24 10.835 24 24h-4.801zM3.291 17.415c1.814 0 3.293 1.479 3.293 3.295 0 1.813-1.485 3.29-3.301 3.29C1.47 24 0 22.526 0 20.71s1.475-3.294 3.291-3.295zM15.909 24h-4.665c0-6.169-5.075-11.245-11.244-11.245V8.09c8.727 0 15.909 7.184 15.909 15.91z"></path>
  </symbol>
  <symbol role="img" xmlns="http://www.w3.org/2000/svg" viewBox="0 0 24 24" id="youtube">
    <title>YouTube</title>
    <path d="M23.498 6.186a3.016 3.016 0 0 0-2.122-2.136C19.505 3.545 12 3.545 12 3.545s-7.505 0-9.377.505A3.017 3.017 0 0 0 .502 6.186C0 8.07 0 12 0 12s0 3.93.502 5.814a3.016 3.016 0 0 0 2.122 2.136c1.871.505 9.376.505 9.376.505s7.505 0 9.377-.505a3.015 3.015 0 0 0 2.122-2.136C24 15.93 24 12 24 12s0-3.93-.502-5.814zM9.545 15.568V8.432L15.818 12l-6.273 3.568z"></path>
  </symbol>
  <symbol role="img" xmlns="http://www.w3.org/2000/svg" viewBox="0 0 24 24" id="wordpress">
    <title>WordPress</title>
    <path d="M21.469 6.825c.84 1.537 1.318 3.3 1.318 5.175 0 3.979-2.156 7.456-5.363 9.325l3.295-9.527c.615-1.54.82-2.771.82-3.864 0-.405-.026-.78-.07-1.11m-7.981.105c.647-.03 1.232-.105 1.232-.105.582-.075.514-.93-.067-.899 0 0-1.755.135-2.88.135-1.064 0-2.85-.15-2.85-.15-.585-.03-.661.855-.075.885 0 0 .54.061 1.125.09l1.68 4.605-2.37 7.08L5.354 6.9c.649-.03 1.234-.1 1.234-.1.585-.075.516-.93-.065-.896 0 0-1.746.138-2.874.138-.2 0-.438-.008-.69-.015C4.911 3.15 8.235 1.215 12 1.215c2.809 0 5.365 1.072 7.286 2.833-.046-.003-.091-.009-.141-.009-1.06 0-1.812.923-1.812 1.914 0 .89.513 1.643 1.06 2.531.411.72.89 1.643.89 2.977 0 .915-.354 1.994-.821 3.479l-1.075 3.585-3.9-11.61.001.014zM12 22.784c-1.059 0-2.081-.153-3.048-.437l3.237-9.406 3.315 9.087c.024.053.05.101.078.149-1.12.393-2.325.609-3.582.609M1.211 12c0-1.564.336-3.05.935-4.39L7.29 21.709C3.694 19.96 1.212 16.271 1.211 12M12 0C5.385 0 0 5.385 0 12s5.385 12 12 12 12-5.385 12-12S18.615 0 12 0"></path>
  </symbol>
   <symbol role="img" xmlns="http://www.w3.org/2000/svg" viewBox="0 0 24 24" id="substack">
    <title>Substack</title>
    <path d="M22.539 8.242H1.46V5.406h21.08v2.836zM1.46 10.812V24L12 18.11 22.54 24V10.812H1.46zM22.54 0H1.46v2.836h21.08V0z"></path>
  </symbol>
</svg>
